<svg xmlns="http://www.w3.org/2000/svg" xmlns:xlink="http://www.w3.org/1999/xlink" version="1.1" x="0px" y="0px"
     viewBox="0 0 96 120" enable-background="new 0 0 96 96" xml:space="preserve"><g><rect x="60.936" y="61.743" fill="white" width="1.498" height="0.105"/><rect
        x="49.596" y="34.65" fill="white" width="1.497" height="0.107"/><path fill="white"
                                                                              d="M81.762,43.091c-0.389-2.689-1.093-5.273-2.068-7.722l5.404-3.118l-4.91-8.503l-5.41,3.123   c-1.656-2.096-3.551-3.992-5.648-5.648l3.124-5.411l-8.503-4.909l-3.12,5.405c-2.446-0.977-5.032-1.681-7.722-2.068V8h-9.819v6.24   c-2.688,0.387-5.272,1.092-7.719,2.068l-3.12-5.403l-8.502,4.909l3.123,5.41c-2.096,1.656-3.992,3.551-5.647,5.647l-5.41-3.123   l-4.909,8.502l5.403,3.121c-0.976,2.446-1.681,5.03-2.068,7.719H8v9.818h6.239c0.387,2.688,1.091,5.271,2.068,7.72l-5.402,3.118   l4.909,8.502l5.408-3.121c1.656,2.096,3.552,3.992,5.648,5.648l-3.123,5.406l8.503,4.909l3.119-5.399   c2.447,0.976,5.031,1.68,7.719,2.067V88h9.819v-6.238c2.688-0.389,5.272-1.093,7.721-2.068l3.119,5.404l8.502-4.91l-3.122-5.408   c2.098-1.656,3.993-3.553,5.65-5.649l5.408,3.123l4.908-8.503l-5.402-3.119c0.978-2.447,1.682-5.031,2.068-7.721H88v-0.001v-9.818   H81.762z M59.34,50.559c1.735,0,3.147,1.411,3.147,3.147c0,1.733-1.412,3.144-3.147,3.144c-1.734,0-3.146-1.41-3.146-3.144   C56.194,51.97,57.605,50.559,59.34,50.559z M59.918,57.438v5.837l-0.578,1.699l-0.577-1.699v-5.837H59.918z M48,23.467   c1.735,0,3.146,1.411,3.147,3.146c0,1.734-1.412,3.146-3.147,3.146s-3.146-1.411-3.146-3.146   C44.854,24.878,46.265,23.467,48,23.467z M48.577,30.346v5.836L48,37.882l-0.578-1.7v-5.836H48.577z M44.305,33.291   c0-1.624,1.321-2.945,2.945-2.945h0.064v5.845L48,38.213l0.681-2.005l0.004-5.862h0.064c1.623,0,2.945,1.321,2.945,2.945v5.75   h-7.389V33.291z M36.658,50.559c1.735,0,3.146,1.411,3.146,3.147c0,1.733-1.411,3.144-3.146,3.144s-3.147-1.41-3.146-3.144   C33.512,51.97,34.923,50.559,36.658,50.559z M37.236,57.438v5.837l-0.578,1.699l-0.578-1.699v-5.837H37.236z M40.353,66.134h-7.389   v-5.751c0-1.624,1.321-2.945,2.945-2.945h0.065v5.845l0.685,2.023L37.34,63.3l0.002-5.862h0.065c1.624,0,2.945,1.321,2.945,2.946   V66.134z M54.301,53.769c-0.058,0.059-0.117,0.117-0.175,0.176c-0.48,0.479-1.28,0.479-1.76,0   c-1.456-1.455-2.911-2.911-4.367-4.367c-1.456,1.456-2.912,2.912-4.368,4.367c-0.479,0.479-1.28,0.479-1.758,0   c-0.059-0.059-0.117-0.117-0.176-0.176c-0.479-0.479-0.479-1.279,0-1.758c1.645-1.646,3.29-3.29,4.935-4.935   c0-0.045,0-0.091,0-0.137c0-0.632,0-1.263,0-1.894c0-1.091,0-2.182,0-3.271c0-0.678,0.565-1.244,1.244-1.244   c0.083,0,0.166,0,0.249,0c0.366,0,0.645,0.133,0.843,0.333c0.013,0.009,0.023,0.021,0.034,0.031   c0.011,0.012,0.023,0.023,0.034,0.036c0.2,0.199,0.332,0.478,0.332,0.843c0,1.21,0,2.419,0,3.629c0,0.558,0,1.115,0,1.673   c1.645,1.645,3.29,3.289,4.934,4.935C54.779,52.489,54.779,53.29,54.301,53.769z M63.036,66.134h-7.391v-5.751   c0-1.624,1.321-2.945,2.945-2.945h0.066v5.845l0.683,2.023l0.682-2.006l0.003-5.862h0.065c1.624,0,2.945,1.321,2.946,2.946V66.134z   "/><rect
        x="38.255" y="61.743" fill="#000000" width="1.497" height="0.105"/></g>
</svg>