<svg xmlns="http://www.w3.org/2000/svg" xmlns:xlink="http://www.w3.org/1999/xlink" version="1.1" x="0px" y="0px" fill="#152837"
     viewBox="0 0 512 640" style="enable-background:new 0 0 512 512;" xml:space="preserve"><g><path  d="M149.2,198.6h13.9c18.5,0,33.6-15.1,33.6-33.6v-20.5c0-18.5-15.1-33.6-33.6-33.6h-13.9c-18.5,0-33.6,15.1-33.6,33.6V165   C115.6,183.5,130.7,198.6,149.2,198.6z"/><path
        d="M348.9,198.6h13.9c18.5,0,33.6-15.1,33.6-33.6v-20.5c0-18.5-15.1-33.6-33.6-33.6h-13.9c-18.5,0-33.6,15.1-33.6,33.6V165   C315.3,183.5,330.4,198.6,348.9,198.6z"/><path
        d="M247.7,213.9h16.6c21.7,0,39.3-17.6,39.3-39.3v-24.5c0-21.7-17.6-39.3-39.3-39.3h-16.6c-21.7,0-39.3,17.6-39.3,39.3v24.5   C208.4,196.3,226,213.9,247.7,213.9z"/><path
        d="M213.4,226.2c-9.3-8-21.3-12.5-33.8-12.5c-1.2,0-2.3,0.5-3.2,1.3l-20.3,20.3L135.9,215c-0.8-0.8-2-1.3-3.2-1.3   c-28.7,0-52,23.3-52,52v37.9c0,2.5,2,4.5,4.5,4.5h72.5v-13.1C157.7,261.2,181.7,232.9,213.4,226.2z"/><path
        d="M379.3,213.7c-1.2,0-2.3,0.5-3.2,1.3l-20.3,20.3L335.6,215c-0.8-0.8-2-1.3-3.2-1.3c-12.6,0-24.5,4.6-33.8,12.5   c31.8,6.7,55.7,35,55.7,68.7V308h72.5c2.5,0,4.5-2,4.5-4.5v-37.9C431.2,237,407.9,213.7,379.3,213.7z"/><path
        d="M284,233.7c-1.2,0-2.3,0.5-3.2,1.3L256,259.8L231.2,235c-0.8-0.8-2-1.3-3.2-1.3c-33.8,0-61.2,27.5-61.2,61.2v45.3   c0,2.5,2,4.5,4.5,4.5h8c3.6-39.3,36.6-70.1,76.8-70.1s73.2,30.9,76.8,70.1h8c2.5,0,4.5-2,4.5-4.5v-45.3   C345.3,261.1,317.8,233.7,284,233.7z"/><path
        d="M256,283.6c-37.6,0-68.1,30.6-68.1,68.1s30.6,68.1,68.1,68.1s68.1-30.6,68.1-68.1S293.6,283.6,256,283.6z M285.8,364.7   l-26.7,24.9c-0.9,0.8-2,1.2-3.1,1.2s-2.2-0.4-3.1-1.2l-26.7-24.9c-10.6-9.9-11.5-26.4-2.1-37c0.3-0.4,0.7-0.7,1.1-1.1   c7.5-7.5,19.4-8.5,30.8-2.8c11.5-5.7,23.4-4.6,30.8,2.8h0c0.4,0.4,0.7,0.7,1.1,1.1C297.3,338.3,296.4,354.9,285.8,364.7z"/></g>
   </svg>