<svg xmlns="http://www.w3.org/2000/svg"
     xmlns:xlink="http://www.w3.org/1999/xlink"
     version="1.1" x="0px" y="0px"
     fill="white"
     viewBox="0 0 53 66.25"
     style="enable-background:new 0 0 53 53;"
     xml:space="preserve"><g><g><g>
    <path d="M12.5390625,44.4138107H7.3759766c-0.4140625,0-0.75-0.3359375-0.75-0.75V32.5661545     c0.2900391-2.453125,0.9848633-4.3476563,2.0703125-5.7216797c2.5283203-3.2001953,9.0786133-3.8173828,14.4482422-3.0166016     c0.409668,0.0615234,0.6918945,0.4433594,0.6303711,0.8535156s-0.4399414,0.6826172-0.8530273,0.6308594     c-4.7807617-0.7197266-10.9042969-0.2519531-13.0488281,2.4619141c-0.8984375,1.1376953-1.5048828,2.8261719-1.7524414,4.8818359     l0.0048828,10.2578125h4.4135742c0.4140625,0,0.75,0.3359375,0.75,0.75S12.953125,44.4138107,12.5390625,44.4138107z"/></g></g><g><g>
    <path d="M26.5825195,25.754631c-3.4692383,0-6.9492188-1.4501953-9.253418-4.0771484     c-3.3369141-3.8046875-3.9038086-9.7363272-1.3481445-14.1044922l0,0     c2.6650391-4.5556641,7.8139648-6.7080078,13.1225586-5.4892578c5.3085938,1.2207031,9.0019531,5.4101563,9.4086914,10.6728516     c0.3906136,5.0449209-2.7109375,10.1328115-7.375,12.0976553C29.6933594,25.4626389,28.1386719,25.754631,26.5825195,25.754631z      M16.628418,7.9518971l0.6474609,0.3789067c-2.2392578,3.8271484-1.7426758,9.0244131,1.1811523,12.3583975     c2.9243164,3.3330078,8.0117188,4.5039063,12.0981445,2.7822266c4.0864258-1.7207031,6.8037109-6.1787109,6.4619141-10.5996084     c-0.3554688-4.5947266-3.59375-8.2548828-8.25-9.3261719c-4.6513672-1.0722656-9.1645508,0.8085938-11.4912109,4.7851567     L16.628418,7.9518971z"/></g></g><g><g>
    <path d="M45.6240234,44.4138107h-5.1630859c-0.4140625,0-0.75-0.3359375-0.75-0.75s0.3359375-0.75,0.75-0.75h4.4130859     V32.5661545c-0.2421875-1.9658203-0.8486328-3.6542969-1.7470703-4.7919922     c-2.1445313-2.7138672-8.2700195-3.1816406-13.0488281-2.4619141c-0.4111328,0.0517578-0.7915039-0.2207031-0.8530273-0.6308594     s0.2207031-0.7919922,0.6303711-0.8535156c5.3706055-0.8027344,11.9199219-0.1835938,14.4482422,3.0166016     c1.0854492,1.3740234,1.7802734,3.2685547,2.0649414,5.6318359l0.0053711,11.1875     C46.3740234,44.0778732,46.0380859,44.4138107,45.6240234,44.4138107z"/></g></g><g><g><g>
    <path d="M26.7480469,51.2526779H13.2685547c-0.4140625,0-0.75-0.3359375-0.75-0.75V31.3054123      c0-0.3798828,0.2836914-0.6992188,0.6601563-0.7441406c4.8413086-0.5878906,9.9404297,0.6835938,13.9946289,3.4746094      c0.203125,0.140625,0.324707,0.3710938,0.324707,0.6181641v15.8486328      C27.4980469,50.9167404,27.1621094,51.2526779,26.7480469,51.2526779z M14.0185547,49.7526779h11.9794922V35.0534592      c-3.5151367-2.3115234-7.8237305-3.4121094-11.9794922-3.0703125V49.7526779z"/></g></g><g><g>
    <path d="M40.2280273,51.2526779H26.7480469c-0.4140625,0-0.75-0.3359375-0.75-0.75V34.6540451      c0-0.2470703,0.121582-0.4775391,0.324707-0.6181641c4.0537109-2.7910156,9.1542969-4.0615234,13.9951172-3.4746094      c0.3764648,0.0449219,0.6601563,0.3642578,0.6601563,0.7441406v19.1972656      C40.9780273,50.9167404,40.6420898,51.2526779,40.2280273,51.2526779z M27.4980469,49.7526779h11.9799805V31.9831467      c-4.1567383-0.3417969-8.4638672,0.7578125-11.9799805,3.0703125V49.7526779z"/></g></g></g></g>
    </svg>